<svg width="24" height="24" viewBox="0 0 24 24" fill="none" xmlns="http://www.w3.org/2000/svg">
<path d="M5.50386 7.73536C9.09158 4.08821 14.9084 4.08821 18.4962 7.73536L18.928 8.17429C19.1073 8.35665 19.1073 8.65231 18.928 8.83467L17.4509 10.3362C17.3612 10.4274 17.2158 10.4274 17.1261 10.3362L16.5319 9.73216C14.029 7.18782 9.97102 7.18782 7.46813 9.73216L6.8318 10.379C6.74211 10.4702 6.59668 10.4702 6.50699 10.379L5.02993 8.8775C4.85054 8.69515 4.85054 8.39949 5.02993 8.21713L5.50386 7.73536ZM21.5509 10.8407L22.8655 12.177C23.0448 12.3594 23.0448 12.655 22.8655 12.8374L16.9379 18.8632C16.7585 19.0456 16.4677 19.0456 16.2883 18.8632C16.2883 18.8632 16.2883 18.8632 16.2883 18.8632L12.0812 14.5865C12.0364 14.5409 11.9637 14.5409 11.9188 14.5865H11.9188L7.7119 18.8632C7.53251 19.0456 7.24167 19.0456 7.06228 18.8632C7.06228 18.8632 7.06228 18.8632 7.06228 18.8632L1.13454 12.8373C0.955153 12.655 0.955153 12.3593 1.13454 12.1769L2.44913 10.8406C2.62852 10.6582 2.91936 10.6582 3.09875 10.8406L7.30584 15.1174C7.35068 15.1629 7.4234 15.1629 7.46824 15.1174C7.46824 15.1174 7.46824 15.1174 7.46824 15.1174L11.6751 10.8406C11.8545 10.6582 12.1453 10.6582 12.3247 10.8406C12.3247 10.8406 12.3247 10.8406 12.3247 10.8406L16.5318 15.1174C16.5767 15.1629 16.6494 15.1629 16.6942 15.1174L20.9013 10.8407C21.0806 10.6583 21.3715 10.6583 21.5509 10.8407Z" fill="#3B99FC"/>
</svg>
